<svg xmlns="http://www.w3.org/2000/svg" width="20" height="20" viewBox="0 0 20 20"><path d="M22.849,14.5A2.573,2.573,0,0,1,24.5,12.1a10.2,10.2,0,0,0-1.234-2.973,2.609,2.609,0,0,1-1.047.224A2.567,2.567,0,0,1,19.87,5.734,10.172,10.172,0,0,0,16.9,4.5a2.572,2.572,0,0,1-4.8,0A10.2,10.2,0,0,0,9.125,5.734,2.567,2.567,0,0,1,6.776,9.348a2.524,2.524,0,0,1-1.047-.224A10.423,10.423,0,0,0,4.5,12.1a2.572,2.572,0,0,1,.005,4.8A10.2,10.2,0,0,0,5.74,19.876a2.569,2.569,0,0,1,3.391,3.39A10.262,10.262,0,0,0,12.1,24.5a2.567,2.567,0,0,1,4.792,0,10.2,10.2,0,0,0,2.974-1.234,2.571,2.571,0,0,1,3.391-3.39A10.257,10.257,0,0,0,24.495,16.9,2.585,2.585,0,0,1,22.849,14.5Zm-8.3,4.16a4.166,4.166,0,1,1,4.167-4.166A4.165,4.165,0,0,1,14.547,18.658Z" transform="translate(-4.5 -4.5)" fill="#fff"/></svg>