<svg xmlns="http://www.w3.org/2000/svg" width="8" height="10" viewBox="0 0 8 10">
  <path id="Icon_awesome-unlock-alt" data-name="Icon awesome-unlock-alt" d="M7.143,5H2.714V2.986A1.365,1.365,0,0,1,3.988,1.562a1.351,1.351,0,0,1,1.3,1.406v.312a.449.449,0,0,0,.429.469h.571a.449.449,0,0,0,.429-.469V2.969A2.852,2.852,0,0,0,3.991,0,2.872,2.872,0,0,0,1.286,3V5H.857A.9.9,0,0,0,0,5.937V9.062A.9.9,0,0,0,.857,10H7.143A.9.9,0,0,0,8,9.062V5.937A.9.9,0,0,0,7.143,5ZM4.714,7.969A.75.75,0,0,1,4,8.75a.75.75,0,0,1-.714-.781V7.031A.75.75,0,0,1,4,6.25a.75.75,0,0,1,.714.781Z" transform="translate(0 0)" fill="#3a4750"/>
</svg>
