<?xml version="1.0" encoding="iso-8859-1"?>
<!-- Generator: Adobe Illustrator 18.0.0, SVG Export Plug-In . SVG Version: 6.00 Build 0)  -->
<!DOCTYPE svg PUBLIC "-//W3C//DTD SVG 1.1//EN" "http://www.w3.org/Graphics/SVG/1.1/DTD/svg11.dtd">
<svg version="1.1" id="Capa_1" xmlns="http://www.w3.org/2000/svg" xmlns:xlink="http://www.w3.org/1999/xlink" x="0px" y="0px"
	 viewBox="0 0 347.262 347.262" style="enable-background:new 0 0 347.262 347.262;" xml:space="preserve">
<g>
	<g>
		<path style="fill:#CE593F;" d="M248.156,118.847c0.245,0.069,0.5,0.143,0.771,0.227
			C248.655,118.99,248.402,118.916,248.156,118.847z"/>
		<path style="fill:#CE593F;" d="M247.319,118.623c0.209,0.052,0.426,0.108,0.664,0.174
			C247.745,118.732,247.528,118.676,247.319,118.623z"/>
		<path style="fill:#CE593F;" d="M250.205,119.502c0.306,0.108,0.619,0.224,0.945,0.35
			C250.824,119.726,250.511,119.611,250.205,119.502z"/>
		<path style="fill:#CE593F;" d="M249.128,119.139c0.276,0.087,0.559,0.18,0.858,0.284
			C249.687,119.32,249.404,119.227,249.128,119.139z"/>
		<path style="fill:#CE593F;" d="M90.916,144.918c-0.165,0.178-0.314,0.365-0.461,0.559C90.6,145.284,90.752,145.096,90.916,144.918
			z"/>
		<path style="fill:#CE593F;" d="M246.582,118.45c0.178,0.039,0.367,0.081,0.579,0.133
			C246.949,118.531,246.761,118.489,246.582,118.45z"/>
		<path style="fill:#CE593F;" d="M89.709,146.687c0.117-0.238,0.237-0.474,0.378-0.697
			C89.946,146.214,89.827,146.449,89.709,146.687z"/>
		<path style="fill:#CE593F;" d="M251.383,119.946c0.33,0.131,0.667,0.269,1.015,0.419
			C252.049,120.214,251.713,120.076,251.383,119.946z"/>
		<path style="fill:#CE593F;" d="M246.048,118.34c0.131,0.025,0.27,0.052,0.434,0.087
			C246.318,118.392,246.179,118.365,246.048,118.34z"/>
		<path style="fill:#CE593F;" d="M245.574,118.255c0.095,0.015,0.221,0.037,0.37,0.064
			C245.794,118.292,245.669,118.271,245.574,118.255z"/>
		<path style="fill:#CE593F;" d="M259.951,124.739c0.383,0.284,0.768,0.581,1.153,0.891
			C260.718,125.321,260.335,125.024,259.951,124.739z"/>
		<path style="fill:#CE593F;" d="M261.512,125.961c0.378,0.312,0.757,0.637,1.135,0.974
			C262.268,126.598,261.891,126.273,261.512,125.961z"/>
		<path style="fill:#CE593F;" d="M263.075,127.32c0.372,0.34,0.743,0.696,1.113,1.062
			C263.817,128.015,263.447,127.66,263.075,127.32z"/>
		<path style="fill:#CE593F;" d="M89.186,148.088c0.078-0.299,0.159-0.596,0.273-0.879
			C89.345,147.492,89.265,147.789,89.186,148.088z"/>
		<path style="fill:#CE593F;" d="M254.007,121.11c0.364,0.179,0.734,0.366,1.111,0.567
			C254.741,121.476,254.372,121.288,254.007,121.11z"/>
		<path style="fill:#CE593F;" d="M252.661,120.482c0.348,0.154,0.703,0.316,1.066,0.49
			C253.364,120.798,253.01,120.636,252.661,120.482z"/>
		<path style="fill:#CE593F;" d="M256.897,122.689c0.38,0.23,0.765,0.47,1.153,0.724
			C257.661,123.159,257.278,122.919,256.897,122.689z"/>
		<path style="fill:#CE593F;" d="M255.427,121.845c0.374,0.204,0.753,0.418,1.138,0.645
			C256.18,122.263,255.802,122.049,255.427,121.845z"/>
		<path style="fill:#CE593F;" d="M258.412,123.654c0.383,0.256,0.77,0.525,1.158,0.806
			C259.181,124.178,258.796,123.91,258.412,123.654z"/>
		<path style="fill:#CE593F;" d="M163.249,329.473c-0.711-0.306-1.409-0.635-2.096-0.985
			C161.84,328.838,162.538,329.168,163.249,329.473z"/>
		<path style="fill:#CE593F;" d="M160.047,327.9c-0.682-0.377-1.356-0.767-2.015-1.185
			C158.691,327.134,159.365,327.523,160.047,327.9z"/>
		<path style="fill:#CE593F;" d="M166.645,330.734c-0.752-0.234-1.485-0.503-2.211-0.784
			C165.16,330.231,165.893,330.499,166.645,330.734z"/>
		<path style="fill:#CE593F;" d="M157.037,326.051c-0.665-0.45-1.326-0.907-1.968-1.397
			C155.712,325.145,156.373,325.601,157.037,326.051z"/>
		<path style="fill:#CE593F;" d="M94.336,142.808c-0.203,0.059-0.407,0.112-0.602,0.187
			C93.929,142.919,94.134,142.867,94.336,142.808z"/>
		<path style="fill:#CE593F;" d="M264.44,128.633c-1.398-0.408-2.408-0.596-2.839-0.665c-0.402-0.033-34.14-7.404-72.021-7.064
			c-36.82,0.33-71.339,7-71.705,7.043c-0.807,0.11-13.155,2-22.714,14.644c-0.027,0.004-0.051,0.016-0.078,0.021
			c0.439-0.08,1.39-0.136,1.852-0.136c4.154,0,8.024,3.367,8.024,7.521v11.197c0,4.154-3.846,7.52-8,7.52c-4.154,0-8-3.367-8-7.52
			v-7.392c-2,7.404-4.946,16.9-4.946,29.087c0,34.562,12.071,60.81,38.013,82.607c9.054,7.608,15.64,19.634,22.619,32.368
			c6.628,12.092,13.393,24.407,22.318,32.959c2.122,0.639,4.324,1.128,6.669,1.359c22.069-2.178,33.738-23.445,45.019-44.031
			c6.98-12.732,13.57-24.76,22.625-32.367c25.943-21.798,38.024-48.046,38.024-82.607C279.3,149.874,272.167,136.406,264.44,128.633
			z M128.959,217.931c0,4.154-2.846,7.521-7,7.521c-4.154,0-7-3.367-7-7.521v-11.197c0-4.154,2.846-7.52,7-7.52
			c4.154,0,7,3.367,7,7.52V217.931z M154.959,274.671c0,4.154-3.846,7.521-8,7.521s-8-3.367-8-7.521v-11.197
			c0-4.154,3.846-7.521,8-7.521s8,3.367,8,7.521V274.671z M154.959,161.192c0,4.154-3.846,7.52-8,7.52s-8-3.367-8-7.52v-11.197
			c0-4.154,3.846-7.521,8-7.521s8,3.367,8,7.521V161.192z M180.959,217.931c0,4.154-3.846,7.521-8,7.521c-4.154,0-8-3.367-8-7.521
			v-11.197c0-4.154,3.846-7.52,8-7.52c4.154,0,8,3.367,8,7.52V217.931z M206.959,274.671c0,4.154-3.846,7.521-8,7.521
			s-8-3.367-8-7.521v-11.197c0-4.154,3.846-7.521,8-7.521s8,3.367,8,7.521V274.671z M206.959,161.192c0,4.154-3.846,7.52-8,7.52
			s-8-3.367-8-7.52v-11.197c0-4.154,3.846-7.521,8-7.521s8,3.367,8,7.521V161.192z M230.959,217.931c0,4.154-1.846,7.521-6,7.521
			s-6-3.367-6-7.521v-11.197c0-4.154,1.846-7.52,6-7.52s6,3.367,6,7.52V217.931z M256.959,161.192c0,4.154-1.846,7.52-6,7.52
			s-6-3.367-6-7.52v-11.197c0-4.154,1.846-7.521,6-7.521s6,3.367,6,7.521V161.192z"/>
		<path style="fill:#CE593F;" d="M93.061,143.307c-0.192,0.097-0.383,0.194-0.566,0.307
			C92.678,143.501,92.869,143.404,93.061,143.307z"/>
		<path style="fill:#CE593F;" d="M154.238,323.986c-0.67-0.537-1.338-1.076-1.984-1.654
			C152.9,322.91,153.569,323.448,154.238,323.986z"/>
		<path style="fill:#CE593F;" d="M91.914,144.018c-0.181,0.136-0.354,0.278-0.521,0.43
			C91.559,144.296,91.734,144.154,91.914,144.018z"/>
		<path style="fill:#CE593F;" d="M133.577,297.076c-0.328-0.576-0.657-1.149-0.982-1.728
			C132.92,295.927,133.25,296.501,133.577,297.076z"/>
		<path style="fill:#CE593F;" d="M88.912,149.995c0-0.494,0.055-0.975,0.145-1.442C88.966,149.021,88.912,149.501,88.912,149.995z"
			/>
		<path style="fill:#CE593F;" d="M144.816,314.312c-0.533-0.675-1.052-1.375-1.571-2.075
			C143.764,312.937,144.283,313.636,144.816,314.312z"/>
		<path style="fill:#CE593F;" d="M135.747,300.807c-0.373-0.629-0.746-1.258-1.115-1.893
			C135,299.55,135.374,300.178,135.747,300.807z"/>
		<path style="fill:#CE593F;" d="M145.355,314.969c2.034,2.524,4.179,4.859,6.463,6.951
			C149.533,319.829,147.39,317.491,145.355,314.969z"/>
		<path style="fill:#CE593F;" d="M131.325,293.07c-0.249-0.449-0.5-0.896-0.748-1.346
			C130.825,292.174,131.076,292.621,131.325,293.07z"/>
		<path style="fill:#CE593F;" d="M142.439,311.15c-0.475-0.659-0.94-1.333-1.404-2.009
			C141.499,309.818,141.965,310.491,142.439,311.15z"/>
		<path style="fill:#CE593F;" d="M137.917,304.375c-0.403-0.644-0.802-1.291-1.198-1.944
			C137.114,303.084,137.514,303.731,137.917,304.375z"/>
		<path style="fill:#CE593F;" d="M140.142,307.829c-0.433-0.65-0.861-1.308-1.286-1.971
			C139.281,306.521,139.709,307.179,140.142,307.829z"/>
	</g>
	<g>
		<path style="fill:#84BD93;" d="M180.702,47.413c0.122-0.336,0.221-0.683,0.294-1.036C180.923,46.73,180.824,47.076,180.702,47.413
			z"/>
		<path style="fill:#84BD93;" d="M180.267,48.388c0.062-0.116,0.105-0.24,0.16-0.359C180.371,48.148,180.328,48.273,180.267,48.388z
			"/>
		<path style="fill:#84BD93;" d="M211.253,15.391c0.797,0.661,1.532,1.387,2.22,2.158C212.785,16.779,212.05,16.053,211.253,15.391z
			"/>
		<path style="fill:#84BD93;" d="M156.72,26.891c-0.283-0.31-0.568-0.612-0.856-0.906C156.152,26.278,156.437,26.581,156.72,26.891z
			"/>
		<path style="fill:#84BD93;" d="M179.702,49.288c0.025-0.034,0.044-0.074,0.069-0.109
			C179.746,49.214,179.727,49.253,179.702,49.288z"/>
		<path style="fill:#84BD93;" d="M157.853,28.202c0.246,0.297,0.496,0.582,0.737,0.892
			C158.349,28.784,158.099,28.499,157.853,28.202z"/>
		<path style="fill:#84BD93;" d="M214.053,18.28c0.463,0.565,0.922,1.134,1.335,1.745C214.974,19.415,214.517,18.845,214.053,18.28z
			"/>
		<path style="fill:#84BD93;" d="M264.516,72.28c0.171,0.235,0.33,0.465,0.489,0.696C264.845,72.744,264.689,72.516,264.516,72.28z"
			/>
		<path style="fill:#84BD93;" d="M261.68,68.934c-0.155-0.156-0.324-0.304-0.485-0.458C261.355,68.63,261.526,68.779,261.68,68.934z
			"/>
		<path style="fill:#84BD93;" d="M263.197,70.587c0.129,0.153,0.24,0.306,0.364,0.459C263.437,70.892,263.327,70.74,263.197,70.587z
			"/>
		<path style="fill:#84BD93;" d="M265.629,73.914c0.154,0.242,0.31,0.485,0.451,0.719C265.937,74.397,265.785,74.16,265.629,73.914z
			"/>
		<path style="fill:#84BD93;" d="M153.903,24.114c0.265,0.232,0.524,0.488,0.786,0.732
			C154.427,24.601,154.168,24.346,153.903,24.114z"/>
		<path style="fill:#84BD93;" d="M259.237,66.794c0.223,0.171,0.443,0.344,0.657,0.521C259.68,67.137,259.461,66.966,259.237,66.794
			z"/>
		<path style="fill:#84BD93;" d="M217.484,23.75c0.307,0.644,0.606,1.294,0.874,1.964C218.09,25.044,217.792,24.395,217.484,23.75z"
			/>
		<path style="fill:#84BD93;" d="M257.128,65.348c0.231,0.139,0.449,0.289,0.672,0.434C257.576,65.636,257.36,65.486,257.128,65.348
			z"/>
		<path style="fill:#84BD93;" d="M215.941,20.925c0.373,0.601,0.74,1.207,1.071,1.842C216.681,22.132,216.314,21.526,215.941,20.925
			z"/>
		<path style="fill:#84BD93;" d="M82.915,85.422c0.484,0.989,0.985,1.917,1.5,2.804C83.9,87.34,83.399,86.411,82.915,85.422z"/>
		<path style="fill:#84BD93;" d="M81.35,81.894c0.467,1.152,0.946,2.257,1.444,3.29C82.296,84.152,81.817,83.046,81.35,81.894z"/>
		<path style="fill:#84BD93;" d="M88.482,93.926c0.668,0.754,1.36,1.459,2.072,2.121C89.841,95.385,89.151,94.68,88.482,93.926z"/>
		<path style="fill:#84BD93;" d="M84.678,88.68c0.556,0.931,1.13,1.812,1.722,2.637C85.808,90.493,85.235,89.611,84.678,88.68z"/>
		<path style="fill:#84BD93;" d="M95.293,99.668c-1.648-1.035-3.195-2.201-4.651-3.542C92.097,97.468,93.645,98.633,95.293,99.668z"
			/>
		<path style="fill:#84BD93;" d="M88.373,93.798c-0.632-0.721-1.245-1.488-1.84-2.304C87.128,92.311,87.741,93.077,88.373,93.798z"
			/>
		<path style="fill:#84BD93;" d="M266.186,74.816c-0.436-0.23-0.882-0.447-1.344-0.648c-6.367-2.764-14.213-2.132-23.322,1.888
			c-2.534,1.119-5.478,0.753-7.662-0.953c-2.186-1.705-3.255-4.471-2.785-7.202c0.092-0.548,0.182-1.157,0.267-1.817
			c0.05-0.021,0.102-0.033,0.152-0.055c-2.534,1.119-5.478,0.753-7.662-0.953c-2.186-1.705-3.255-4.471-2.785-7.202
			c1.068-6.341,1.797-20.608-2.55-31.794c-8.084,2.231-23.063,9.159-27.456,30.262c-0.001,0.005-0.035,0.009-0.036,0.013
			c-0.004,0.018-0.045,0.033-0.045,0.051v-0.001c-1,2.848-2.778,5.215-5.808,5.842c-4.066,0.834-8.03-1.773-8.873-5.841
			c-0.305-1.471-0.653-2.872-1.054-4.208c-0.026,0.006-0.046,0.016-0.072,0.022c-4.066,0.834-8.045-1.773-8.887-5.841
			c-1.284-6.207-3.492-11.168-6.164-15.168c-5.524-3.675-10.989-5.19-14.066-5.788c-12.131,10.07-11.257,33.769-9.788,42.492
			c0.459,2.727-0.614,5.494-2.798,7.192c-2.182,1.698-5.121,2.067-7.652,0.951c-9.159-4.041-17.04-4.661-23.428-1.841
			c-7.078,3.125-11.04,9.82-12.652,13.18c1.638,4.999,3.491,8.995,5.583,12.278c1.94,1.218,4.01,2.27,6.239,3.218
			c18.491-4.291,44.517-6.742,72.014-6.742c27.546,0,53.617,2.46,72.117,6.765c9.938-4.219,16.898-10.275,21.902-25.542
			C267.227,76.656,266.751,75.769,266.186,74.816z"/>
		<path style="fill:#84BD93;" d="M79.689,77.367c0.433,1.321,0.886,2.549,1.349,3.737C80.575,79.917,80.122,78.688,79.689,77.367z"
			/>
		<path style="fill:#84BD93;" d="M140.843,16.678c0.118,0.039,0.244,0.088,0.364,0.13C141.087,16.767,140.961,16.718,140.843,16.678
			z"/>
		<path style="fill:#84BD93;" d="M147.117,19.401c0.239,0.129,0.481,0.278,0.721,0.414
			C147.597,19.679,147.356,19.531,147.117,19.401z"/>
		<path style="fill:#84BD93;" d="M137.244,15.66c0.136,0.031,0.28,0.068,0.422,0.102C137.523,15.727,137.381,15.692,137.244,15.66z"
			/>
		<path style="fill:#84BD93;" d="M144.507,18.121c0.258,0.116,0.514,0.228,0.776,0.352C145.02,18.348,144.765,18.237,144.507,18.121
			z"/>
		<path style="fill:#84BD93;" d="M149.113,20.571c0.3,0.187,0.6,0.382,0.9,0.582C149.712,20.953,149.413,20.758,149.113,20.571z"/>
		<path style="fill:#84BD93;" d="M138.73,16.04c0.166,0.045,0.328,0.088,0.499,0.138C139.056,16.128,138.896,16.085,138.73,16.04z"
			/>
		<path style="fill:#84BD93;" d="M142.594,17.317c0.239,0.092,0.483,0.192,0.727,0.293C143.076,17.509,142.834,17.41,142.594,17.317
			z"/>
		<path style="fill:#84BD93;" d="M151.195,21.976c0.29,0.209,0.581,0.411,0.87,0.633C151.775,22.387,151.486,22.185,151.195,21.976z
			"/>
	</g>
	<path style="fill:#3F2D20;" d="M96.433,142.475c-4.154,0-7.521,3.367-7.521,7.521v11.197c0,4.154,3.367,7.521,7.521,7.521
		c4.154,0,7.521-3.367,7.521-7.521v-11.197C103.953,145.841,100.587,142.475,96.433,142.475z"/>
	<path style="fill:#3F2D20;" d="M147.899,142.475c-4.154,0-7.521,3.367-7.521,7.521v11.197c0,4.154,3.367,7.521,7.521,7.521
		c4.154,0,7.521-3.367,7.521-7.521v-11.197C155.419,145.841,152.053,142.475,147.899,142.475z"/>
	<path style="fill:#3F2D20;" d="M199.365,142.475c-4.154,0-7.521,3.367-7.521,7.521v11.197c0,4.154,3.367,7.521,7.521,7.521
		c4.154,0,7.521-3.367,7.521-7.521v-11.197C206.886,145.841,203.519,142.475,199.365,142.475z"/>
	<path style="fill:#3F2D20;" d="M258.351,161.192v-11.197c0-4.154-3.367-7.521-7.521-7.521c-4.154,0-7.521,3.367-7.521,7.521v11.197
		c0,4.154,3.367,7.521,7.521,7.521C254.984,168.713,258.351,165.346,258.351,161.192z"/>
	<path style="fill:#3F2D20;" d="M122.166,199.213c-4.154,0-7.521,3.367-7.521,7.521v11.197c0,4.154,3.367,7.521,7.521,7.521
		c4.154,0,7.521-3.367,7.521-7.521v-11.197C129.687,202.58,126.32,199.213,122.166,199.213z"/>
	<path style="fill:#3F2D20;" d="M173.631,199.213c-4.154,0-7.521,3.367-7.521,7.521v11.197c0,4.154,3.367,7.521,7.521,7.521
		c4.154,0,7.521-3.367,7.521-7.521v-11.197C181.152,202.58,177.785,199.213,173.631,199.213z"/>
	<path style="fill:#3F2D20;" d="M225.095,199.213c-4.154,0-7.521,3.367-7.521,7.521v11.197c0,4.154,3.367,7.521,7.521,7.521
		c4.154,0,7.521-3.367,7.521-7.521v-11.197C232.616,202.58,229.249,199.213,225.095,199.213z"/>
	<path style="fill:#3F2D20;" d="M147.899,255.954c-4.154,0-7.521,3.367-7.521,7.521v11.197c0,4.154,3.367,7.521,7.521,7.521
		c4.154,0,7.521-3.367,7.521-7.521v-11.197C155.419,259.32,152.053,255.954,147.899,255.954z"/>
	<path style="fill:#3F2D20;" d="M199.365,255.954c-4.154,0-7.521,3.367-7.521,7.521v11.197c0,4.154,3.367,7.521,7.521,7.521
		c4.154,0,7.521-3.367,7.521-7.521v-11.197C206.886,259.32,203.519,255.954,199.365,255.954z"/>
	<path style="fill:#3F2D20;" d="M271.379,114.589c-2.452-2.035-4.896-3.705-7.241-5.08c7.448-5.886,14.09-14.963,18.643-30.397
		c0.437-1.48,0.407-3.058-0.084-4.52c-0.233-0.699-5.924-17.198-21.7-24.164c-7.313-3.229-15.394-3.888-24.123-1.976
		c0.27-13.931-2.278-36.364-19.693-47.299c-1.351-0.849-2.944-1.249-4.527-1.133c-10.112,0.712-28.198,6.954-39.025,24.448
		C162.801,6.978,144.722,0.732,134.61,0.02c-1.586-0.117-3.178,0.284-4.528,1.133c-17.414,10.934-19.962,33.367-19.693,47.299
		c-8.728-1.91-16.808-1.253-24.123,1.976C70.49,57.393,64.798,73.892,64.565,74.591c-0.491,1.463-0.52,3.041-0.083,4.52
		c4.556,15.438,11.2,24.516,18.651,30.403c-2.342,1.374-4.786,3.042-7.234,5.073c-10.482,8.697-22.978,25.92-22.978,58.587
		c0,38.804,14.194,69.592,43.39,94.123c6.895,5.793,12.829,16.619,19.11,28.082c12.051,21.985,27.047,49.347,57.57,51.858
		c0.21,0.018,0.418,0.025,0.625,0.025c0.005,0,0.01-0.001,0.014-0.001c0.005,0,0.01,0.001,0.014,0.001
		c0.207,0,0.414-0.008,0.625-0.025c30.525-2.511,45.52-29.873,57.571-51.859c6.283-11.461,12.215-22.287,19.111-28.08
		c29.196-24.532,43.389-55.321,43.389-94.123C294.341,140.509,281.854,123.286,271.379,114.589z M218.65,288.148
		c-11.281,20.586-22.951,41.854-45.02,44.031c-22.066-2.177-33.736-23.445-45.018-44.031c-6.979-12.733-13.571-24.76-22.625-32.368
		c-25.942-21.796-38.025-48.044-38.025-82.607c0-49.768,32.559-54.759,33.885-54.941c0.365-0.043,34.884-6.713,71.705-7.043
		c37.881-0.34,71.619,7.031,72.021,7.064c3.012,0.48,33.726,6.563,33.726,54.919c0,34.56-12.082,60.809-38.025,82.607
		C232.22,263.388,225.63,275.416,218.65,288.148z M92.341,64.187c6.388-2.82,14.269-2.2,23.428,1.841
		c2.531,1.116,5.47,0.747,7.652-0.951c2.184-1.698,3.257-4.465,2.798-7.192c-1.469-8.723-2.342-32.422,9.789-42.492
		c6.808,1.325,25.316,7.089,30.259,30.984c0.842,4.068,4.823,6.676,8.889,5.841c3.03-0.628,5.25-2.995,5.84-5.842l0.001,0.001
		c0.004-0.018,0.008-0.033,0.012-0.051c0.001-0.004,0.002-0.008,0.003-0.013c4.968-23.865,23.482-29.609,30.242-30.922
		c12.136,10.067,11.259,33.769,9.792,42.482c-0.47,2.731,0.599,5.498,2.785,7.202c2.184,1.706,5.127,2.071,7.662,0.953
		c9.109-4.02,16.955-4.653,23.322-1.888c7.131,3.099,11.132,9.855,12.758,13.232c-5.004,15.268-11.965,21.324-21.902,25.542
		c-18.5-4.305-44.571-6.765-72.117-6.765c-27.497,0-53.523,2.45-72.014,6.741c-9.91-4.218-16.853-10.28-21.849-25.524
		C81.301,74.007,85.263,67.312,92.341,64.187z"/>
</g>
<g>
</g>
<g>
</g>
<g>
</g>
<g>
</g>
<g>
</g>
<g>
</g>
<g>
</g>
<g>
</g>
<g>
</g>
<g>
</g>
<g>
</g>
<g>
</g>
<g>
</g>
<g>
</g>
<g>
</g>
</svg>
