<svg id="Capa_1" enable-background="new 0 0 512 512" height="512" viewBox="0 0 512 512" width="512" xmlns="http://www.w3.org/2000/svg"><g><g><path d="m271 60h-60c-24.814 0-45-20.186-45-45 0-8.291 6.709-15 15-15s15 6.709 15 15c0 8.276 6.724 15 15 15h60c8.291 0 15 6.709 15 15s-6.709 15-15 15z" fill="#fabe2c"/></g><path d="m271 392h-60c-8.291 0-15 6.709-15 15s6.709 15 15 15c8.276 0 15 6.724 15 15 0 8.291 6.709 15 15 15s15-6.709 15-15c0-5.284-1.082-10.285-2.763-15h17.763c8.276 0 15 6.724 15 15 0 8.291 6.709 15 15 15s15-6.709 15-15c0-24.814-20.186-45-45-45z" fill="#563941"/><path d="m286 437c0 8.291 6.709 15 15 15s15-6.709 15-15c0-24.814-20.186-45-45-45v30c8.276 0 15 6.724 15 15z" fill="#38211a"/><path d="m346 180h-30v-90h90v30c0 33.137-26.863 60-60 60z" fill="#d0004f"/><path d="m361 30h-15l-30 30v45c0 8.291 6.709 15 15 15h90c8.291 0 15-6.709 15-15 0-41.353-33.647-75-75-75z" fill="#ff435b"/><path d="m271 30c-40.466 0-75.654 32.276-75.015 73.374.59 37.703-19.671 73.317-54.28 95.702-39.889 25.798-65.705 70.419-65.705 117.924v180c0 8.291 6.709 15 15 15s15-6.709 15-15c0-30.818 20.519-53.441 46.403-75h58.597c21.669 0 41.854-5.581 60-14.654 44.293-22.145 75-67.456 75-120.346v-257z" fill="#c3ea21"/><path d="m346 287v-257h-75v377.346c44.293-22.145 75-67.456 75-120.346z" fill="#9cdd05"/><circle cx="271" cy="105" fill="#563941" r="15"/><path d="m286 105c0-8.286-6.716-15-15-15v30c8.284 0 15-6.716 15-15z" fill="#38211a"/></g></svg>